# AST/ASF file generated using VICON BodyLanguage
# -----------------------------------------------
:version 1.10
:name VICON
:units
  mass 1.0
  length 0.45
  angle deg
:documentation
   .ast/.asf automatically generated from VICON data using
   VICON BodyBuilder and BodyLanguage model FoxedUp or BRILLIANT.MOD
:root
   order TX TY TZ RX RY RZ
   axis XYZ
   position 0 0 0  
   orientation 0 0 0 
:bonedata
  begin
     id 1 
     name lhipjoint
     direction 0.690799 -0.707083 0.151096 
     length 2.54797 
     axis 0 0 0  XYZ
  end
  begin
     id 2 
     name lfemur
     direction 0.34202 -0.939693 0  
     length 7.21646  
     axis 0 0 20  XYZ
    dof rx ry rz
    limits (-160.0 20.0)
           (-70.0 70.0)
           (-60.0 70.0)
  end
  begin
     id 3 
     name ltibia
     direction 0.34202 -0.939693 0   
     length 8.16759   
     axis 0 0 20   XYZ
    dof rx
    limits (-10.0 170.0)
  end
  begin
     id 4 
     name lfoot
     direction 0.0487203 -0.133858 0.989802   
     length 1.93375   
     axis -90 7.62852e-016 20   XYZ
    dof rx rz
    limits (-45.0 90.0)
           (-70.0 20.0)
  end
  begin
     id 5 
     name ltoes
     direction 1.53453e-011 -4.21783e-011 1   
     length 0.979747   
     axis -90 7.62852e-016 20   XYZ
    dof rx
    limits (-90.0 20.0)
  end
  begin
     id 6 
     name rhipjoint
     direction -0.694693 -0.703425 0.150315   
     length 2.56122  
     axis 0 0 0  XYZ 
  end
  begin
     id 7 
     name rfemur
     direction -0.34202 -0.939693 0   
     length 7.36786   
     axis 0 0 -20   XYZ
    dof rx ry rz
    limits (-160.0 20.0)
           (-70.0 70.0)
           (-70.0 60.0)
  end
  begin
     id 8 
     name rtibia
     direction -0.34202 -0.939693 0   
     length 8.07288   
     axis 0 0 -20   XYZ
    dof rx
    limits (-10.0 170.0)
 end
 begin
     id 9 
     name rfoot
     direction -0.0428397 -0.117701 0.992125   
     length 1.88295  
     axis -90 -7.62852e-016 -20   XYZ
    dof rx rz
    limits (-45.0 90.0)
           (-20.0 70.0)
  end
  begin
     id 10 
     name rtoes
     direction -1.53456e-011 -4.2187e-011 1   
     length 0.955578   
     axis -90 -7.62852e-016 -20   XYZ
    dof rx
    limits (-90.0 20.0)
  end
  begin
     id 11 
     name lowerback
     direction 0.0288145 0.999398 -0.0193241   
     length 1.92149   
     axis 0 0 0   XYZ
    dof rx ry rz
    limits (-20.0 45.0)
           (-30.0 30.0)
           (-30.0 30.0)
  end
  begin
     id 12 
     name upperback
     direction 0.0233784 0.998099 0.0570278   
     length 1.90435   
     axis 0 0 0   XYZ
    dof rx ry rz
    limits (-20.0 45.0)
           (-30.0 30.0)
           (-30.0 30.0)
  end
  begin
     id 13 
     name thorax
     direction 0.0096694 0.997833 0.0650817   
     length 1.9111   
     axis 0 0 0   XYZ
    dof rx ry rz
    limits (-20.0 45.0)
           (-30.0 30.0)
           (-30.0 30.0)
  end
  begin
     id 14 
     name lowerneck
     direction 0.00516803 0.999916 0.0118722   
     length 1.74664   
     axis 0 0 0   XYZ
    dof rx ry rz
    limits (-20.0 45.0)
           (-30.0 30.0)
           (-30.0 30.0)
  end
  begin
     id 15 
     name upperneck
     direction -0.0510851 0.996117 -0.071696   
     length 1.68498   
     axis 0 0 0   XYZ
    dof rx ry rz
    limits (-20.0 45.0)
           (-30.0 30.0)
           (-30.0 30.0)
  end
  begin
     id 16
     name head
     direction -0.019188 0.999436 -0.0275702  
     length 1.83483  
     axis 0 0 0   XYZ
    dof rx ry rz
    limits (-20.0 45.0)
           (-30.0 30.0)
           (-30.0 30.0)
  end
  begin
     id 17 
     name lclavicle
     direction 0.967006 0.248456 -0.0562957  
     length 3.39395  
     axis 0 0 0   XYZ
    dof ry rz
    limits (-20.0 10.0)
           (0.0 20.0)
  end
  begin
     id 18 
     name lhumerus
     direction 1 -4.48962e-011 -5.62711e-019   
     length 5.24318   
     axis 180 -30 -90   XYZ
    dof rx ry rz
    limits (-60.0 90.0)
           (-90.0 90.0)
           (-90.0 90.0)
  end
  begin
     id 19
     name lradius
     direction 1 -4.48966e-011 7.90625e-027   
     length 2.98999   
     axis 180 -30 -90   XYZ
    dof rx
    limits (-10.0 170.0)
  end
  begin
     id 20
     name lwrist
     direction 1 -4.48959e-011 1.61068e-026   
     length 1.49499   
     axis -9.31229e-015 90 90   XYZ
    dof ry
    limits (-180.0 0.0)
 end
  begin
     id 21 
     name lhand
     direction 1 -4.49017e-011 3.22136e-026   
     length 0.726745   
     axis -2.0555e-014 90 90   XYZ
    dof rx rz
    limits (-90.0 90.0)
           (-45.0 45.0)
  end
  begin
     id 22 
     name lfingers
     direction 1 -4.4898e-011 6.44272e-026   
     length 0.58592   
     axis -4.11101e-014 90 90   XYZ
    dof rx
    limits (0.0 90.0)
  end
  begin
     id 23
     name lthumb
     direction 0.707107 -6.34922e-011 0.707107   
     length 0.841268   
     axis -90 45 2.85299e-015   XYZ
    dof rx rz
    limits (-45.0 45.0)
           (-45.0 45.0)
  end
  begin
     id 24 
     name rclavicle
     direction -0.972232 0.230238 0.0419005   
     length 3.40416  
     axis 0 0 0   XYZ 
    dof ry rz
    limits (-10.0 20.0)
           (-20.0 0.0)
  end
  begin
     id 25 
     name rhumerus
     direction -1 -4.48976e-011 2.48487e-027  
     length 5.37045   
     axis 180 30 90   XYZ
    dof rx ry rz
    limits (-90.0 60.0)
           (-90.0 90.0)
           (-90.0 90.0)
  end
  begin
     id 26 
     name rradius
     direction -1 -4.48942e-011 7.87951e-027   
     length 2.92792   
     axis 180 30 90   XYZ
    dof rx
    limits (-10.0 170.0)
  end
  begin
     id 27 
     name rwrist
     direction -1 -4.48969e-011 1.61068e-026   
     length 1.46396   
     axis -9.31229e-015 -90 -90   XYZ
    dof ry
    limits (-180.0 0.0)
  end
  begin
     id 28
     name rhand
     direction -1 -4.49043e-011 3.22136e-026   
     length 0.784497   
     axis -2.0555e-014 -90 -90   XYZ
    dof rx rz
    limits (-90.0 90.0)
           (-45.0 45.0)
  end
  begin
     id 29
     name rfingers
     direction -1 -4.48823e-011 6.44272e-026   
     length 0.632482   
     axis -4.11101e-014 -90 -90   XYZ
    dof rx
    limits (0.0 90.0)
  end
  begin
     id 30
     name rthumb
     direction -0.707107 -6.34923e-011 0.707107   
     length 0.908121   
     axis -90 -45 -2.85299e-015   XYZ
    dof rx rz
    limits (-45.0 45.0)
           (-45.0 45.0)
  end
:hierarchy
  begin
    root lhipjoint rhipjoint lowerback
    lhipjoint lfemur
    lfemur ltibia
    ltibia lfoot
    lfoot ltoes
    rhipjoint rfemur
    rfemur rtibia
    rtibia rfoot
    rfoot rtoes
    lowerback upperback
    upperback thorax
    thorax lowerneck lclavicle rclavicle
    lowerneck upperneck
    upperneck head
    lclavicle lhumerus
    lhumerus lradius
    lradius lwrist
    lwrist lhand lthumb
    lhand lfingers
    rclavicle rhumerus
    rhumerus rradius
    rradius rwrist
    rwrist rhand rthumb
    rhand rfingers
  end

#!OML:ASF E:\Style6\Style6.ASF
:FULLY-SPECIFIED
:DEGREES
2171
root -0.147949 16.4054 1.87823 -23.9649 -2.45931 0.555654
lowerback -5.90046 -1.61177 -3.78537
upperback 8.30533 -1.78026 0.199516
thorax 12.4452 -1.22292 2.03931
lowerneck 10.8688 -12.295 -9.63852
upperneck 13.7838 -16.0286 -18.5526
head 1.84499 -8.75776 -4.23507
rclavicle -6.18717e-015 -1.63003e-014
rhumerus 53.6981 -30.8433 -61.8976
rradius 117.875
rwrist -61.8485
rhand 33.9837 5.72662
rfingers 7.12502
rthumb 57.2484 -10.6506
lclavicle -6.18717e-015 -1.63003e-014
lhumerus 11.1693 33.0135 33.8506
lradius 132.189
lwrist 46.0405
lhand 36.583 33.8399
lfingers 7.12502
lthumb 59.5074 48.1272
rfemur 8.37872 -4.6851 15.9764
rtibia 51.0388
rfoot -26.9629 -6.08828
rtoes -19.3812
lfemur 13.1373 4.14313 -13.4321
ltibia 47.1554
lfoot -26.3525 8.09206
ltoes -32.7227
2172
root -0.143544 16.4052 1.86653 -23.9554 -2.59901 0.425357
lowerback -5.84998 -1.61485 -3.66929
upperback 8.3485 -1.80716 0.263279
thorax 12.463 -1.23009 2.03979
lowerneck 10.8225 -12.3453 -9.66122
upperneck 13.839 -16.0915 -18.366
head 1.88767 -8.79452 -4.1749
rclavicle 2.90723e-015 -1.98785e-015
rhumerus 53.7059 -30.9973 -61.9851
rradius 117.867
rwrist -62.1688
rhand 33.7583 5.88629
rfingers 7.12502
rthumb 57.0504 -10.6577
lclavicle 2.90723e-015 -1.98785e-015
lhumerus 10.9675 32.8929 33.8539
lradius 132.209
lwrist 46.1742
lhand 36.8702 34.1485
lfingers 7.12502
lthumb 59.754 48.1845
rfemur 8.30917 -4.67608 16.1272
rtibia 51.0165
rfoot -26.9044 -6.05349
rtoes -19.4543
lfemur 13.1009 4.15267 -13.2981
ltibia 47.216
lfoot -26.3849 8.18897
ltoes -32.758
2173
root -0.136284 16.4056 1.85712 -23.9784 -2.7116 0.348095
lowerback -5.79963 -1.62206 -3.55417
upperback 8.40471 -1.83511 0.287433
thorax 12.4945 -1.23583 1.99723
lowerneck 10.7702 -12.3869 -9.6007
upperneck 13.9049 -16.1319 -18.2379
head 1.9232 -8.81842 -4.1479
rclavicle 1.43373e-014 7.95139e-015
rhumerus 53.7006 -31.1526 -62.1227
rradius 117.86
rwrist -62.5255
rhand 33.5738 5.80961
rfingers 7.12502
rthumb 56.8881 -10.8693
lclavicle 1.43373e-014 7.95139e-015
lhumerus 10.7551 32.7253 33.8115
lradius 132.199
lwrist 46.1837
lhand 37.0183 34.2037
lfingers 7.12502
lthumb 59.8809 48.1084
rfemur 8.3092 -4.70447 16.1663
rtibia 50.9721
rfoot -26.8375 -6.10288
rtoes -20.1905
lfemur 13.1136 4.16027 -13.243
ltibia 47.2775
lfoot -26.4349 8.2467
ltoes -32.6441
2174
root -0.129041 16.4056 1.84559 -23.9649 -2.88379 0.231032
lowerback -5.7419 -1.62581 -3.41775
upperback 8.43149 -1.86623 0.356249
thorax 12.4882 -1.24283 1.99164
lowerneck 10.7779 -12.4007 -9.58355
upperneck 13.9678 -16.1496 -18.081
head 1.9554 -8.82982 -4.10132
rclavicle 1.12065e-014 1.17283e-014
rhumerus 53.6793 -31.2724 -62.2505
rradius 117.809
rwrist -62.7733
rhand 33.5339 5.81741
rfingers 7.12502
rthumb 56.8529 -10.8905
lclavicle 1.12065e-014 1.17283e-014
lhumerus 10.5086 32.6333 33.7719
lradius 132.185
lwrist 46.301
lhand 37.2056 34.3401
lfingers 7.12502
lthumb 60.0412 48.0772
rfemur 8.26143 -4.69124 16.2808
rtibia 50.9249
rfoot -26.8079 -6.09103
rtoes -20.4505
lfemur 13.063 4.19693 -13.124
ltibia 47.3435
lfoot -26.4946 8.25795
ltoes -32.403
2175
root -0.122268 16.4067 1.83252 -23.9011 -3.03958 0.119306
lowerback -5.7082 -1.65546 -3.35506
upperback 8.44955 -1.92707 0.461211
thorax 12.4941 -1.27318 2.06126
lowerneck 10.7681 -12.3691 -9.71618
upperneck 13.995 -16.1254 -17.8138
head 2.00412 -8.8234 -3.99861
rclavicle -2.69602e-014 -7.55382e-015
rhumerus 53.7345 -31.3508 -62.3847
rradius 117.747
rwrist -62.9424
rhand 33.611 5.81519
rfingers 7.12502
rthumb 56.9208 -10.8366
lclavicle -2.69602e-014 -7.55382e-015
lhumerus 10.2036 32.6303 33.7065
lradius 132.131
lwrist 46.4509
lhand 37.5258 34.5916
lfingers 7.12502
lthumb 60.3144 48.0375
rfemur 8.15391 -4.70995 16.3832
rtibia 50.8779
rfoot -26.7533 -5.92637
rtoes -20.1731
lfemur 12.9391 4.24197 -13.01
ltibia 47.411
lfoot -26.5382 8.35895
ltoes -32.5496
